<?xml version="1.0" encoding="UTF-8" standalone="no"?>
<svg
   xmlns:dc="http://purl.org/dc/elements/1.1/"
   xmlns:cc="http://creativecommons.org/ns#"
   xmlns:rdf="http://www.w3.org/1999/02/22-rdf-syntax-ns#"
   xmlns:svg="http://www.w3.org/2000/svg"
   xmlns="http://www.w3.org/2000/svg"
   width="195.69112mm"
   height="42.177692mm"
   viewBox="0 0 693.39372 149.44851"
   id="svg2"
   version="1.1">
  <defs
     id="defs4" />
  <metadata
     id="metadata7">
    <rdf:RDF>
      <cc:Work
         rdf:about="">
        <dc:format>image/svg+xml</dc:format>
        <dc:type
           rdf:resource="http://purl.org/dc/dcmitype/StillImage" />
        <dc:title></dc:title>
      </cc:Work>
    </rdf:RDF>
  </metadata>
  <g
     id="g5743"
     style="display:inline;fill:#ffffff"
     transform="translate(-31.549436,-455.28328)">x
    <path
   id="path5745"
   d="m 124.88733,544.11289 c -1.66797,2.4593 -3.23436,4.9649 -4.69645,7.5157 -1.4942,2.60681 -2.88749,5.25827 -4.19311,7.94889 -1.30563,2.69063 -2.52398,5.42014 -3.66778,8.18269 -1.1438,2.76255 -2.2121,5.55814 -3.22081,8.38073 -1.00871,2.82258 -1.95739,5.67225 -2.85775,8.54299 -0.8154,2.59983 -1.48872,5.26248 -2.23615,7.89251 0.23423,-0.20575 0.49417,-0.36352 0.71788,-0.58722 l 48.87747,-48.87747 c 5.57462,-5.57463 5.57462,-14.55065 0,-20.12528 l -48.87747,-48.87747 c -0.70142,-0.70142 -1.45707,-1.31243 -2.25265,-1.83732 -0.009,0.26355 -0.0413,0.52721 -0.0468,0.79076 -0.0341,1.6285 -0.007,3.25637 0.0811,4.88486 0.0879,1.62849 0.23596,3.25774 0.44421,4.88623 0.20824,1.62849 0.47612,3.25637 0.80314,4.88486 0.65402,3.25699 1.54427,6.51411 2.66384,9.7711 1.11704,3.24958 2.46438,6.4995 4.03221,9.74909 l 18.7968,18.79543 c 3.79786,3.79786 3.79786,9.91328 0,13.71115 l -4.36776,4.36777 z"
   style="opacity:1;fill-opacity:1;stroke:none;stroke-width:0.80000001;stroke-linecap:butt;stroke-linejoin:miter;stroke-miterlimit:4;stroke-dasharray:none;stroke-dashoffset:12.19999981;stroke-opacity:1;fill:#ffffff" />
<path
   id="path5747"
   d="m 99.851056,470.9239 c -1.664144,-0.65281 -3.420041,-0.99567 -5.180536,-0.99567 -3.637604,0 -7.275329,1.39342 -10.062649,4.18073 l -48.877468,48.87747 c -5.574623,5.57463 -5.574623,14.55065 0,20.12528 l 48.877468,48.87747 c 4.764062,4.76406 11.998353,5.42087 17.484829,2.04223 0.0262,-0.23867 0.0419,-0.48081 0.0688,-0.71925 0.32919,-2.91803 0.70984,-5.81884 1.16208,-8.69428 0.45223,-2.87543 0.97645,-5.72559 1.5884,-8.54575 0.61195,-2.82015 1.31229,-5.6093 2.12063,-8.36147 0.80832,-2.75217 1.72423,-5.46717 2.76561,-8.13868 0.0883,-0.22661 0.20827,-0.44238 0.29842,-0.66836 l -8.86481,8.8648 c -3.797858,3.79787 -9.911918,3.79787 -13.709784,0 l -28.023303,-28.0233 c -3.797855,-3.79786 -3.797866,-9.91329 0,-13.71115 l 28.023303,-28.02193 c 1.898936,-1.89893 4.377369,-2.8495 6.855585,-2.8495 1.816687,0 3.62813,0.52225 5.216286,1.54301 -0.07663,-0.32246 -0.184838,-0.63752 -0.255795,-0.96129 -0.359686,-1.64126 -0.645404,-3.29971 -0.852651,-4.97562 -0.207236,-1.67591 -0.336752,-3.36993 -0.380936,-5.0829 -0.0442,-1.71296 -0.0029,-3.44459 0.126525,-5.19704 0.12947,-1.75243 0.347731,-3.5251 0.661489,-5.31943 0.244456,-1.39801 0.596492,-2.82063 0.95854,-4.24537 z"
   style="opacity:1;fill-opacity:1;stroke:none;stroke-width:0.80000001;stroke-linecap:butt;stroke-linejoin:miter;stroke-miterlimit:4;stroke-dasharray:none;stroke-dashoffset:12.19999981;stroke-opacity:1;fill:#ffffff" />
<path
   id="path5749"
   d="m 196.60206,569.75977 c 0.81884,2.9121 1.60188,5.83207 2.122,8.74792 0.6502,3.64515 1.06357,7.27467 1.23634,10.84652 0.0864,1.78593 0.11357,3.55734 0.0784,5.30844 -0.0352,1.7511 -0.13197,3.48213 -0.29018,5.18741 -0.10508,1.13263 -0.2788,2.23483 -0.4387,3.34322 6.21519,2.84596 13.76058,1.75627 18.89169,-3.37485 l 57.87567,-57.87705 c 6.601,-6.601 6.601,-17.22919 0,-23.83019 L 218.2016,460.23415 c -3.30049,-3.3005 -7.60914,-4.95087 -11.91647,-4.95087 -3.66326,0 -7.28692,1.26811 -10.33081,3.65539 0.41589,1.72073 0.78852,3.4235 1.0548,5.08565 0.30525,1.90529 0.51394,3.774 0.63262,5.60961 0.11868,1.83561 0.14657,3.63924 0.0894,5.41295 -0.0572,1.7737 -0.19849,3.51733 -0.42082,5.23692 -0.22235,1.71958 -0.52538,3.41378 -0.90216,5.08702 -0.37679,1.67324 -0.82858,3.32581 -1.34912,4.96049 -0.25314,0.79499 -0.57288,1.57407 -0.85815,2.3613 l 3.96758,-3.96621 c 2.24855,-2.24854 5.18219,-3.37346 8.11667,-3.37346 2.93449,0 5.8695,1.12492 8.11806,3.37346 l 33.1832,33.18183 c 4.49711,4.49712 4.49711,11.73763 0,16.23473 l -33.1832,33.18321 c -4.49712,4.49711 -11.73763,4.49711 -16.23473,0 l -1.5664,-1.5664 z"
   style="opacity:1;fill-opacity:1;stroke:none;stroke-width:0.80000001;stroke-linecap:butt;stroke-linejoin:miter;stroke-miterlimit:4;stroke-dasharray:none;stroke-dashoffset:12.19999981;stroke-opacity:1;fill:#ffffff" />
<path
   id="path5751"
   d="m 193.63153,460.97403 -57.13716,57.13716 c -6.60099,6.601 -6.60099,17.2292 0,23.83019 l 57.87567,57.87705 c 0.91807,0.91807 1.92653,1.67796 2.97877,2.34066 -0.10338,-0.90284 -0.1215,-1.76005 -0.24755,-2.67347 -0.48297,-3.50005 -1.13176,-7.07257 -1.94596,-10.68012 -0.8142,-3.60756 -1.79317,-7.24988 -2.93614,-10.88917 -1.14297,-3.63929 -2.45014,-7.27466 -3.91944,-10.86991 -1.43296,-3.50636 -3.03241,-6.96914 -4.77347,-10.36245 l -18.541,-18.54101 c -4.49711,-4.4971 -4.49711,-11.73761 0,-16.23473 l 13.77441,-13.77441 c 0.20125,-0.30349 0.46438,-0.61715 0.66151,-0.92004 2.22129,-3.41307 4.18026,-6.78846 5.88053,-10.14515 0.85013,-1.67836 1.63532,-3.35246 2.35578,-5.02377 0.72047,-1.6713 1.37677,-3.33967 1.96797,-5.00863 0.59121,-1.66895 1.11782,-3.33733 1.58016,-5.00863 0.46234,-1.6713 0.86121,-3.3454 1.19508,-5.02376 0.33388,-1.67835 0.60284,-3.36116 0.80865,-5.05125 0.2058,-1.6901 0.34818,-3.38737 0.42632,-5.0939 0.0781,-1.70654 0.0918,-3.42261 0.0426,-5.15028 -0.007,-0.24303 -0.0373,-0.49088 -0.0468,-0.73438 z"
   style="opacity:1;fill-opacity:1;stroke:none;stroke-width:0.80000001;stroke-linecap:butt;stroke-linejoin:miter;stroke-miterlimit:4;stroke-dasharray:none;stroke-dashoffset:12.19999981;stroke-opacity:1;fill:#ffffff" />
<path
   id="path5753"
   d="m 159.53131,483.11868 a 14.749377,19.190247 26.299313 0 1 -20.61792,14.51964 14.749377,19.190247 26.299313 0 1 -8.31647,-21.59947 14.749377,19.190247 26.299313 0 1 20.61792,-14.51965 14.749377,19.190247 26.299313 0 1 8.31647,21.59948 z"
   style="opacity:1;fill-opacity:1;stroke:none;stroke-width:30;stroke-linecap:butt;stroke-linejoin:miter;stroke-miterlimit:4;stroke-dasharray:none;stroke-dashoffset:12.19999981;stroke-opacity:1;fill:#ffffff" />
<g
   id="g5755"
   transform="matrix(0.60255001,0,0,0.60255001,271.14938,189.25815)"
   style="fill-opacity:1;fill:#ffffff">
  <path
     style="font-style:normal;font-variant:normal;font-weight:normal;font-stretch:normal;font-size:medium;line-height:normal;font-family:sans-serif;text-indent:0;text-align:start;text-decoration:none;text-decoration-line:none;text-decoration-style:solid;text-decoration-color:#FFFFFF;letter-spacing:normal;word-spacing:normal;text-transform:none;direction:ltr;block-progression:tb;writing-mode:lr-tb;baseline-shift:baseline;text-anchor:start;white-space:normal;clip-rule:nonzero;display:inline;overflow:visible;visibility:visible;opacity:1;isolation:auto;mix-blend-mode:normal;color-interpolation:sRGB;color-interpolation-filters:linearRGB;solid-color:#FFFFFF;solid-opacity:1;fill-opacity:1;fill-rule:nonzero;stroke:none;stroke-width:8;stroke-linecap:butt;stroke-linejoin:miter;stroke-miterlimit:4;stroke-dasharray:none;stroke-dashoffset:12.19999981;stroke-opacity:1;color-rendering:auto;image-rendering:auto;shape-rendering:auto;text-rendering:auto;enable-background:accumulate;fill:#ffffff"
     d="m 366.61812,521.79095 0,46.1543 c 0,9.9009 2.94983,19.12297 8,26.85352 l 0,0.002 c 8.80004,13.46908 24.0012,22.39648 41.25196,22.39649 17.2498,0 32.44865,-8.92701 41.24804,-22.39454 l 0,19.57618 8,0 0,-92.5879 -8,0 0,47.50196 -0.0332,0 c -0.71058,22.20287 -18.83529,39.91015 -41.21484,39.91015 -22.37981,0 -40.50846,-17.70691 -41.21875,-39.91015 -0.0622,-0.37876 -0.0375,-0.95979 -0.041,-1.34766 l 0.008,-46.1543 -8,0 z"
     id="path5757" />
  <path
     style="font-style:normal;font-variant:normal;font-weight:normal;font-stretch:normal;font-size:medium;line-height:normal;font-family:sans-serif;text-indent:0;text-align:start;text-decoration:none;text-decoration-line:none;text-decoration-style:solid;text-decoration-color:#FFFFFF;letter-spacing:normal;word-spacing:normal;text-transform:none;direction:ltr;block-progression:tb;writing-mode:lr-tb;baseline-shift:baseline;text-anchor:start;white-space:normal;clip-rule:nonzero;display:inline;overflow:visible;visibility:visible;opacity:1;isolation:auto;mix-blend-mode:normal;color-interpolation:sRGB;color-interpolation-filters:linearRGB;solid-color:#FFFFFF;solid-opacity:1;fill-opacity:1;fill-rule:nonzero;stroke:none;stroke-width:8;stroke-linecap:butt;stroke-linejoin:miter;stroke-miterlimit:4;stroke-dasharray:none;stroke-dashoffset:12.19999981;stroke-opacity:1;color-rendering:auto;image-rendering:auto;shape-rendering:auto;text-rendering:auto;enable-background:accumulate;fill:#ffffff"
     d="m 83.504839,518.69721 c -27.152494,0 -49.25,22.09554 -49.25,49.24804 0,27.15249 22.097505,49.25195 49.25,49.25196 17.250631,0 32.450801,-8.92787 41.250001,-22.39649 l 0,19.57813 8,0 0,-46.4336 0,-46.1543 -8,0 0,19.30079 c -8.7992,-13.46805 -23.99937,-22.39453 -41.250001,-22.39453 z m 0,7.99414 c 22.755661,0 41.126871,18.2994 41.250001,41.02539 l 0,0.45703 c -0.12313,22.72599 -18.49434,41.02929 -41.250001,41.02929 -22.832315,0 -41.255859,-18.4255 -41.255859,-41.25781 0,-22.83232 18.423545,-41.2539 41.255859,-41.2539 z"
     id="path5759" />
  <path
     style="font-style:normal;font-variant:normal;font-weight:normal;font-stretch:normal;font-size:medium;line-height:normal;font-family:sans-serif;text-indent:0;text-align:start;text-decoration:none;text-decoration-line:none;text-decoration-style:solid;text-decoration-color:#FFFFFF;letter-spacing:normal;word-spacing:normal;text-transform:none;direction:ltr;block-progression:tb;writing-mode:lr-tb;baseline-shift:baseline;text-anchor:start;white-space:normal;clip-rule:nonzero;display:inline;overflow:visible;visibility:visible;opacity:1;isolation:auto;mix-blend-mode:normal;color-interpolation:sRGB;color-interpolation-filters:linearRGB;solid-color:#FFFFFF;solid-opacity:1;fill-opacity:1;fill-rule:nonzero;stroke:none;stroke-width:8;stroke-linecap:butt;stroke-linejoin:miter;stroke-miterlimit:4;stroke-dasharray:none;stroke-dashoffset:12.19999981;stroke-opacity:1;color-rendering:auto;image-rendering:auto;shape-rendering:auto;text-rendering:auto;enable-background:accumulate;fill:#ffffff"
     d="m 235.54195,476.70502 0,64.38476 c -8.7994,-13.46696 -23.99824,-22.39257 -41.24804,-22.39257 -27.15249,0 -49.25196,22.09554 -49.25196,49.24804 0,27.15249 22.09947,49.25195 49.25196,49.25196 17.2498,0 32.44864,-8.92701 41.24804,-22.39454 l 0,19.57618 8,0 0,-46.4336 0,-91.24023 -8,0 z m -41.24804,49.98633 c 22.73011,0 41.08411,18.25868 41.24804,40.94921 l 0,0.60938 c -0.16393,22.69053 -18.51793,40.95312 -41.24804,40.95312 -22.83231,0 -41.25782,-18.4255 -41.25782,-41.25781 0,-22.83232 18.42551,-41.2539 41.25782,-41.2539 z"
     id="path5761" />
  <path
     style="display:inline;opacity:1;fill-opacity:1;stroke:none;stroke-width:8;stroke-linecap:butt;stroke-linejoin:miter;stroke-miterlimit:4;stroke-dasharray:none;stroke-dashoffset:12.19999981;stroke-opacity:1;fill:#ffffff"
     d="m 479.40523,476.70502 0,137.67383 8,0 0,-137.67383 -8,0 z"
     id="path5763" />
  <path
     style="opacity:1;fill-opacity:1;stroke:none;stroke-width:8;stroke-linecap:butt;stroke-linejoin:miter;stroke-miterlimit:4;stroke-dasharray:none;stroke-dashoffset:12.19999981;stroke-opacity:1;fill:#ffffff"
     d="m 610.47945,476.70502 0,41.53906 0,8 0,14.9707 0,17.61133 0,19.68945 0,0.0801 0.002,0 c 0.0437,27.11562 22.12437,49.16992 49.25,49.16992 0.20247,0 0.40162,-0.0132 0.60351,-0.0156 l 0,-7.99414 c -0.20175,0.003 -0.40105,0.0156 -0.60351,0.0156 -22.80545,0 -41.21257,-18.38071 -41.25586,-41.17578 l 0.004,0 0,-0.30664 c 0.002,-0.0507 0.003,-0.10135 0.004,-0.15234 l -0.004,0 0,-19.31055 0,-17.61133 0,-14.9707 41.85547,0 0,-8 -41.85547,0 0,-41.53906 -8,0 z"
     id="path5765" />
  <path
     style="font-style:normal;font-variant:normal;font-weight:normal;font-stretch:normal;font-size:medium;line-height:normal;font-family:sans-serif;text-indent:0;text-align:start;text-decoration:none;text-decoration-line:none;text-decoration-style:solid;text-decoration-color:#FFFFFF;letter-spacing:normal;word-spacing:normal;text-transform:none;direction:ltr;block-progression:tb;writing-mode:lr-tb;baseline-shift:baseline;text-anchor:start;white-space:normal;clip-rule:nonzero;display:inline;overflow:visible;visibility:visible;opacity:1;isolation:auto;mix-blend-mode:normal;color-interpolation:sRGB;color-interpolation-filters:linearRGB;solid-color:#FFFFFF;solid-opacity:1;fill-opacity:1;fill-rule:nonzero;stroke:none;stroke-width:8;stroke-linecap:butt;stroke-linejoin:miter;stroke-miterlimit:4;stroke-dasharray:none;stroke-dashoffset:12.19999981;stroke-opacity:1;color-rendering:auto;image-rendering:auto;shape-rendering:auto;text-rendering:auto;enable-background:accumulate;fill:#ffffff"
     d="m 346.32906,476.70502 0,64.38672 c -8.79921,-13.46805 -23.99741,-22.39453 -41.24805,-22.39453 -27.15249,0 -49.25195,22.09554 -49.25195,49.24804 0,27.15249 22.09946,49.25195 49.25195,49.25196 17.25064,0 32.44884,-8.92787 41.24805,-22.39649 l 0,19.57813 8,0 0,-46.4336 0,-91.24023 -8,0 z m -41.24805,49.98633 c 22.75304,0 41.12072,18.29521 41.24805,41.01757 l 0,0.47266 c -0.12733,22.72236 -18.49501,41.02148 -41.24805,41.02148 -22.83231,0 -41.25781,-18.4255 -41.25781,-41.25781 0,-22.83232 18.4255,-41.2539 41.25781,-41.2539 z"
     id="path5767" />
  <path
     style="font-style:normal;font-variant:normal;font-weight:normal;font-stretch:normal;font-size:medium;line-height:normal;font-family:sans-serif;text-indent:0;text-align:start;text-decoration:none;text-decoration-line:none;text-decoration-style:solid;text-decoration-color:#FFFFFF;letter-spacing:normal;word-spacing:normal;text-transform:none;direction:ltr;block-progression:tb;writing-mode:lr-tb;baseline-shift:baseline;text-anchor:start;white-space:normal;clip-rule:nonzero;display:inline;overflow:visible;visibility:visible;opacity:1;isolation:auto;mix-blend-mode:normal;color-interpolation:sRGB;color-interpolation-filters:linearRGB;solid-color:#FFFFFF;solid-opacity:1;fill-opacity:1;fill-rule:nonzero;stroke:none;stroke-width:8;stroke-linecap:butt;stroke-linejoin:miter;stroke-miterlimit:4;stroke-dasharray:none;stroke-dashoffset:12.19999981;stroke-opacity:1;color-rendering:auto;image-rendering:auto;shape-rendering:auto;text-rendering:auto;enable-background:accumulate;fill:#ffffff"
     d="m 546.9443,518.69721 c -27.1525,0 -49.25196,22.09554 -49.25196,49.24804 0,27.15249 22.09946,49.25195 49.25196,49.25196 17.25063,0 32.44884,-8.92787 41.24804,-22.39649 l 0,19.57813 8,0 0,-46.4336 0,-46.1543 -8,0 0,19.30079 c -8.7992,-13.46805 -23.99741,-22.39453 -41.24804,-22.39453 z m 0,7.99414 c 22.75303,0 41.12072,18.29521 41.24804,41.01757 l 0,0.47266 c -0.12732,22.72236 -18.49501,41.02148 -41.24804,41.02148 -22.83232,0 -41.25782,-18.4255 -41.25782,-41.25781 0,-22.83232 18.4255,-41.2539 41.25782,-41.2539 z"
     id="path5769" />
  <path
     style="display:inline;opacity:1;fill-opacity:1;stroke:none;stroke-width:8;stroke-linecap:butt;stroke-linejoin:miter;stroke-miterlimit:4;stroke-dasharray:none;stroke-dashoffset:12.19999981;stroke-opacity:1;fill:#ffffff"
     d="m 703.87222,518.6977 c -27.1525,0 -49.25,22.09555 -49.25,49.24805 0,27.15249 22.0975,49.25195 49.25,49.25195 13.21098,0 25.21198,-5.24171 34.0625,-13.74219 l -5.82617,-5.41015 c -7.37314,6.92028 -17.29468,11.1582 -28.23633,11.1582 -21.48165,0 -39.05772,-16.31098 -41.0625,-37.25586 l 90.13477,0 c 0.10685,-1.32108 0.17773,-2.65386 0.17773,-4.00195 0,-27.1525 -22.0975,-49.24805 -49.25,-49.24805 z m 0,7.99414 c 21.48236,0 39.05695,16.31016 41.06055,37.25586 l -82.12305,0 c 2.00379,-20.9457 19.58012,-37.25586 41.0625,-37.25586 z"
     id="path5771" />
</g>
</g>
</svg>
