<?xml version="1.0" encoding="UTF-8" standalone="no"?>
<svg
   xmlns:dc="http://purl.org/dc/elements/1.1/"
   xmlns:cc="http://creativecommons.org/ns#"
   xmlns:rdf="http://www.w3.org/1999/02/22-rdf-syntax-ns#"
   xmlns:svg="http://www.w3.org/2000/svg"
   xmlns="http://www.w3.org/2000/svg"
   version="1.1"
   id="svg2"
   viewBox="0 0 693.39372 149.44851"
   height="42.177692mm"
   width="195.69112mm">
  <defs
     id="defs4" />
  <metadata
     id="metadata7">
    <rdf:RDF>
      <cc:Work
         rdf:about="">
        <dc:format>image/svg+xml</dc:format>
        <dc:type
           rdf:resource="http://purl.org/dc/dcmitype/StillImage" />
        <dc:title></dc:title>
      </cc:Work>
    </rdf:RDF>
  </metadata>
  <g
     transform="translate(-31.549436,-455.28328)"
     style="display:inline"
     id="g5626">
    <g
       transform="translate(-10.4665,0)"
       id="g5690">
      <g
         id="g5628"
         transform="matrix(0.57181195,0,0,0.57181195,-58.360576,351.01385)">
        <path
           style="opacity:1;fill:#797c87;fill-opacity:1;stroke:none;stroke-width:0.80000001;stroke-linecap:butt;stroke-linejoin:miter;stroke-miterlimit:4;stroke-dasharray:none;stroke-dashoffset:12.19999981;stroke-opacity:1"
           d="m 338.77292,337.69676 c -2.91699,4.30089 -5.65634,8.68274 -8.21327,13.14365 -2.6131,4.55886 -5.04972,9.1958 -7.33303,13.90124 -2.28332,4.70544 -4.414,9.47888 -6.4143,14.3101 -2.00031,4.83122 -3.86859,9.72022 -5.63265,14.65644 -1.76406,4.93621 -3.42313,9.91979 -4.99771,14.94022 -1.42599,4.54665 -2.60351,9.20316 -3.91063,13.80263 0.40962,-0.35982 0.86422,-0.63573 1.25544,-1.02695 l 85.47822,-85.47822 c 9.74906,-9.74906 9.74906,-25.44657 0,-35.19564 l -85.47822,-85.47821 c -1.22666,-1.22666 -2.54816,-2.29522 -3.93949,-3.21316 -0.0153,0.46091 -0.0722,0.922 -0.0818,1.38291 -0.0596,2.84795 -0.0123,5.69482 0.14189,8.54277 0.15369,2.84795 0.41265,5.69722 0.77684,8.54517 0.36418,2.84795 0.83266,5.69483 1.40456,8.54277 1.14377,5.69591 2.70065,11.39205 4.65859,17.08796 1.95351,5.68295 4.30978,11.3665 7.05163,17.04946 l 32.87235,32.86995 c 6.64181,6.6418 6.64181,17.33662 0,23.97843 l -7.63846,7.63848 z"
           id="path5630" />
        <path
           style="opacity:1;fill:#bbbdc3;fill-opacity:1;stroke:none;stroke-width:0.80000001;stroke-linecap:butt;stroke-linejoin:miter;stroke-miterlimit:4;stroke-dasharray:none;stroke-dashoffset:12.19999981;stroke-opacity:1"
           d="m 294.98882,209.7019 c -2.9103,-1.14166 -5.98106,-1.74126 -9.05986,-1.74126 -6.36154,0 -12.72329,2.43685 -17.59783,7.31138 l -85.47822,85.47821 c -9.74905,9.74907 -9.74905,25.44658 0,35.19564 l 85.47822,85.47822 c 8.33152,8.33151 20.98304,9.48016 30.57793,3.57151 0.0458,-0.4174 0.0733,-0.84085 0.1203,-1.25784 0.5757,-5.10314 1.24139,-10.17615 2.03228,-15.20479 0.79088,-5.02864 1.70764,-10.01308 2.77784,-14.94504 1.07019,-4.93195 2.29497,-9.80969 3.70861,-14.62276 1.41362,-4.81308 3.01538,-9.56114 4.83657,-14.23314 0.15449,-0.39631 0.36423,-0.77366 0.5219,-1.16886 l -15.50303,15.50301 c -6.64179,6.64181 -17.33422,6.64181 -23.97603,0 l -49.0079,-49.0079 c -6.64179,-6.6418 -6.64181,-17.33662 0,-23.97843 l 49.0079,-49.0055 c 3.32091,-3.3209 7.65526,-4.98328 11.98923,-4.98328 3.17707,0 6.34497,0.91333 9.12238,2.69847 -0.13402,-0.56394 -0.32325,-1.11492 -0.44734,-1.68113 -0.62903,-2.87028 -1.1287,-5.77063 -1.49114,-8.70151 -0.36242,-2.93087 -0.58892,-5.89341 -0.66619,-8.8891 -0.0773,-2.99567 -0.005,-6.02399 0.22127,-9.08872 0.22642,-3.06471 0.60812,-6.1648 1.15683,-9.30276 0.42751,-2.44489 1.04316,-4.9328 1.67632,-7.42442 z"
           id="path5632" />
        <path
           style="opacity:1;fill:#797c87;fill-opacity:1;stroke:none;stroke-width:0.80000001;stroke-linecap:butt;stroke-linejoin:miter;stroke-miterlimit:4;stroke-dasharray:none;stroke-dashoffset:12.19999981;stroke-opacity:1"
           d="m 464.18955,382.54871 c 1.43202,5.09275 2.80142,10.19928 3.71101,15.29859 1.1371,6.37474 1.86,12.72214 2.16215,18.96869 0.15106,3.12328 0.19861,6.22116 0.13709,9.28353 -0.0616,3.06238 -0.23079,6.08964 -0.50747,9.07188 -0.18377,1.98078 -0.48758,3.90834 -0.76722,5.84671 10.86929,4.97709 24.06487,3.07142 33.0383,-5.90202 L 603.17793,333.89916 c 11.544,-11.544 11.544,-30.13087 0,-41.67487 L 501.96341,191.00738 c -5.77199,-5.772 -13.30707,-8.65822 -20.83984,-8.65822 -6.40641,0 -12.74356,2.21771 -18.0668,6.39265 0.72733,3.00926 1.37899,5.9871 1.84467,8.89391 0.53382,3.33203 0.89878,6.60008 1.10633,9.81024 0.20756,3.21016 0.25633,6.36441 0.15633,9.46631 -0.1,3.1019 -0.34712,6.15121 -0.73594,9.15847 -0.38884,3.00725 -0.91879,5.9701 -1.57772,8.89631 -0.65894,2.92622 -1.44904,5.81627 -2.35937,8.67505 -0.44271,1.39029 -1.00188,2.75276 -1.50076,4.12949 l 6.93861,-6.9362 c 3.93232,-3.93232 9.06275,-5.8996 14.19465,-5.8996 5.13191,0 10.26474,1.96728 14.19707,5.8996 l 58.03167,58.02927 c 7.86467,7.86467 7.86467,20.52707 0,28.39173 l -58.03167,58.03168 c -7.86467,7.86466 -20.52707,7.86466 -28.39172,0 l -2.73937,-2.73936 z"
           id="path5634" />
        <path
           style="opacity:1;fill:#f55d00;fill-opacity:1;stroke:none;stroke-width:0.80000001;stroke-linecap:butt;stroke-linejoin:miter;stroke-miterlimit:4;stroke-dasharray:none;stroke-dashoffset:12.19999981;stroke-opacity:1"
           d="m 458.99462,192.3013 -99.923,99.92299 c -11.54399,11.544 -11.54399,30.13088 0,41.67487 l 101.21452,101.21693 c 1.60554,1.60554 3.36917,2.93447 5.20935,4.09341 -0.18079,-1.57891 -0.21248,-3.07802 -0.43291,-4.67544 -0.84464,-6.12097 -1.97926,-12.3687 -3.40315,-18.67768 -1.4239,-6.30899 -3.13595,-12.67878 -5.1348,-19.04327 -1.99886,-6.36449 -4.28488,-12.72211 -6.85443,-19.00959 -2.506,-6.13202 -5.30316,-12.18782 -8.34796,-18.12212 l -32.42501,-32.42501 c -7.86466,-7.86466 -7.86466,-20.52706 0,-28.39173 l 24.08907,-24.08907 c 0.35195,-0.53074 0.81211,-1.07929 1.15685,-1.60899 3.88466,-5.96886 7.31056,-11.87183 10.28403,-17.74211 1.48673,-2.93515 2.85989,-5.86286 4.11986,-8.78569 1.25998,-2.92282 2.40773,-5.84051 3.44164,-8.75923 1.03392,-2.91871 1.95487,-5.83641 2.76342,-8.75922 0.80855,-2.92282 1.5061,-5.85053 2.08999,-8.78569 0.58389,-2.93514 1.05427,-5.87809 1.41418,-8.83377 0.35991,-2.95568 0.60892,-5.92391 0.74557,-8.90835 0.13664,-2.98443 0.16049,-5.98554 0.0745,-9.00694 -0.0123,-0.42502 -0.0653,-0.85846 -0.0818,-1.2843 z"
           id="path5636" />
        <path
           style="opacity:1;fill:#f55d00;fill-opacity:1;stroke:none;stroke-width:30;stroke-linecap:butt;stroke-linejoin:miter;stroke-miterlimit:4;stroke-dasharray:none;stroke-dashoffset:12.19999981;stroke-opacity:1"
           d="m 399.35924,231.02845 a 25.794105,33.560417 26.299313 0 1 -36.05716,25.39234 25.794105,33.560417 26.299313 0 1 -14.54407,-37.77374 25.794105,33.560417 26.299313 0 1 36.05716,-25.39234 25.794105,33.560417 26.299313 0 1 14.54407,37.77374 z"
           id="path5638" />
      </g>
    </g>
    <g
       transform="matrix(0.60255001,0,0,0.60255001,271.14938,189.25815)"
       id="g5640">
      <path
         id="path5642"
         d="m 366.61812,521.79095 0,46.1543 c 0,9.9009 2.94983,19.12297 8,26.85352 l 0,0.002 c 8.80004,13.46908 24.0012,22.39648 41.25196,22.39649 17.2498,0 32.44865,-8.92701 41.24804,-22.39454 l 0,19.57618 8,0 0,-92.5879 -8,0 0,47.50196 -0.0332,0 c -0.71058,22.20287 -18.83529,39.91015 -41.21484,39.91015 -22.37981,0 -40.50846,-17.70691 -41.21875,-39.91015 -0.0622,-0.37876 -0.0375,-0.95979 -0.041,-1.34766 l 0.008,-46.1543 -8,0 z"
         style="color:#000000;font-style:normal;font-variant:normal;font-weight:normal;font-stretch:normal;font-size:medium;line-height:normal;font-family:sans-serif;text-indent:0;text-align:start;text-decoration:none;text-decoration-line:none;text-decoration-style:solid;text-decoration-color:#000000;letter-spacing:normal;word-spacing:normal;text-transform:none;direction:ltr;block-progression:tb;writing-mode:lr-tb;baseline-shift:baseline;text-anchor:start;white-space:normal;clip-rule:nonzero;display:inline;overflow:visible;visibility:visible;opacity:1;isolation:auto;mix-blend-mode:normal;color-interpolation:sRGB;color-interpolation-filters:linearRGB;solid-color:#000000;solid-opacity:1;fill:#797c87;fill-opacity:1;fill-rule:nonzero;stroke:none;stroke-width:8;stroke-linecap:butt;stroke-linejoin:miter;stroke-miterlimit:4;stroke-dasharray:none;stroke-dashoffset:12.19999981;stroke-opacity:1;color-rendering:auto;image-rendering:auto;shape-rendering:auto;text-rendering:auto;enable-background:accumulate" />
      <path
         id="path5644"
         d="m 83.504839,518.69721 c -27.152494,0 -49.25,22.09554 -49.25,49.24804 0,27.15249 22.097505,49.25195 49.25,49.25196 17.250631,0 32.450801,-8.92787 41.250001,-22.39649 l 0,19.57813 8,0 0,-46.4336 0,-46.1543 -8,0 0,19.30079 c -8.7992,-13.46805 -23.99937,-22.39453 -41.250001,-22.39453 z m 0,7.99414 c 22.755661,0 41.126871,18.2994 41.250001,41.02539 l 0,0.45703 c -0.12313,22.72599 -18.49434,41.02929 -41.250001,41.02929 -22.832315,0 -41.255859,-18.4255 -41.255859,-41.25781 0,-22.83232 18.423545,-41.2539 41.255859,-41.2539 z"
         style="color:#000000;font-style:normal;font-variant:normal;font-weight:normal;font-stretch:normal;font-size:medium;line-height:normal;font-family:sans-serif;text-indent:0;text-align:start;text-decoration:none;text-decoration-line:none;text-decoration-style:solid;text-decoration-color:#000000;letter-spacing:normal;word-spacing:normal;text-transform:none;direction:ltr;block-progression:tb;writing-mode:lr-tb;baseline-shift:baseline;text-anchor:start;white-space:normal;clip-rule:nonzero;display:inline;overflow:visible;visibility:visible;opacity:1;isolation:auto;mix-blend-mode:normal;color-interpolation:sRGB;color-interpolation-filters:linearRGB;solid-color:#000000;solid-opacity:1;fill:#f55e00;fill-opacity:1;fill-rule:nonzero;stroke:none;stroke-width:8;stroke-linecap:butt;stroke-linejoin:miter;stroke-miterlimit:4;stroke-dasharray:none;stroke-dashoffset:12.19999981;stroke-opacity:1;color-rendering:auto;image-rendering:auto;shape-rendering:auto;text-rendering:auto;enable-background:accumulate" />
      <path
         id="path5646"
         d="m 235.54195,476.70502 0,64.38476 c -8.7994,-13.46696 -23.99824,-22.39257 -41.24804,-22.39257 -27.15249,0 -49.25196,22.09554 -49.25196,49.24804 0,27.15249 22.09947,49.25195 49.25196,49.25196 17.2498,0 32.44864,-8.92701 41.24804,-22.39454 l 0,19.57618 8,0 0,-46.4336 0,-91.24023 -8,0 z m -41.24804,49.98633 c 22.73011,0 41.08411,18.25868 41.24804,40.94921 l 0,0.60938 c -0.16393,22.69053 -18.51793,40.95312 -41.24804,40.95312 -22.83231,0 -41.25782,-18.4255 -41.25782,-41.25781 0,-22.83232 18.42551,-41.2539 41.25782,-41.2539 z"
         style="color:#000000;font-style:normal;font-variant:normal;font-weight:normal;font-stretch:normal;font-size:medium;line-height:normal;font-family:sans-serif;text-indent:0;text-align:start;text-decoration:none;text-decoration-line:none;text-decoration-style:solid;text-decoration-color:#000000;letter-spacing:normal;word-spacing:normal;text-transform:none;direction:ltr;block-progression:tb;writing-mode:lr-tb;baseline-shift:baseline;text-anchor:start;white-space:normal;clip-rule:nonzero;display:inline;overflow:visible;visibility:visible;opacity:1;isolation:auto;mix-blend-mode:normal;color-interpolation:sRGB;color-interpolation-filters:linearRGB;solid-color:#000000;solid-opacity:1;fill:#f55e00;fill-opacity:1;fill-rule:nonzero;stroke:none;stroke-width:8;stroke-linecap:butt;stroke-linejoin:miter;stroke-miterlimit:4;stroke-dasharray:none;stroke-dashoffset:12.19999981;stroke-opacity:1;color-rendering:auto;image-rendering:auto;shape-rendering:auto;text-rendering:auto;enable-background:accumulate" />
      <path
         id="path5648"
         d="m 479.40523,476.70502 0,137.67383 8,0 0,-137.67383 -8,0 z"
         style="display:inline;opacity:1;fill:#797c87;fill-opacity:1;stroke:none;stroke-width:8;stroke-linecap:butt;stroke-linejoin:miter;stroke-miterlimit:4;stroke-dasharray:none;stroke-dashoffset:12.19999981;stroke-opacity:1" />
      <path
         id="path5650"
         d="m 610.47945,476.70502 0,41.53906 0,8 0,14.9707 0,17.61133 0,19.68945 0,0.0801 0.002,0 c 0.0437,27.11562 22.12437,49.16992 49.25,49.16992 0.20247,0 0.40162,-0.0132 0.60351,-0.0156 l 0,-7.99414 c -0.20175,0.003 -0.40105,0.0156 -0.60351,0.0156 -22.80545,0 -41.21257,-18.38071 -41.25586,-41.17578 l 0.004,0 0,-0.30664 c 0.002,-0.0507 0.003,-0.10135 0.004,-0.15234 l -0.004,0 0,-19.31055 0,-17.61133 0,-14.9707 41.85547,0 0,-8 -41.85547,0 0,-41.53906 -8,0 z"
         style="opacity:1;fill:#797c87;fill-opacity:1;stroke:none;stroke-width:8;stroke-linecap:butt;stroke-linejoin:miter;stroke-miterlimit:4;stroke-dasharray:none;stroke-dashoffset:12.19999981;stroke-opacity:1" />
      <path
         id="path5652"
         d="m 346.32906,476.70502 0,64.38672 c -8.79921,-13.46805 -23.99741,-22.39453 -41.24805,-22.39453 -27.15249,0 -49.25195,22.09554 -49.25195,49.24804 0,27.15249 22.09946,49.25195 49.25195,49.25196 17.25064,0 32.44884,-8.92787 41.24805,-22.39649 l 0,19.57813 8,0 0,-46.4336 0,-91.24023 -8,0 z m -41.24805,49.98633 c 22.75304,0 41.12072,18.29521 41.24805,41.01757 l 0,0.47266 c -0.12733,22.72236 -18.49501,41.02148 -41.24805,41.02148 -22.83231,0 -41.25781,-18.4255 -41.25781,-41.25781 0,-22.83232 18.4255,-41.2539 41.25781,-41.2539 z"
         style="color:#000000;font-style:normal;font-variant:normal;font-weight:normal;font-stretch:normal;font-size:medium;line-height:normal;font-family:sans-serif;text-indent:0;text-align:start;text-decoration:none;text-decoration-line:none;text-decoration-style:solid;text-decoration-color:#000000;letter-spacing:normal;word-spacing:normal;text-transform:none;direction:ltr;block-progression:tb;writing-mode:lr-tb;baseline-shift:baseline;text-anchor:start;white-space:normal;clip-rule:nonzero;display:inline;overflow:visible;visibility:visible;opacity:1;isolation:auto;mix-blend-mode:normal;color-interpolation:sRGB;color-interpolation-filters:linearRGB;solid-color:#000000;solid-opacity:1;fill:#797c87;fill-opacity:1;fill-rule:nonzero;stroke:none;stroke-width:8;stroke-linecap:butt;stroke-linejoin:miter;stroke-miterlimit:4;stroke-dasharray:none;stroke-dashoffset:12.19999981;stroke-opacity:1;color-rendering:auto;image-rendering:auto;shape-rendering:auto;text-rendering:auto;enable-background:accumulate" />
      <path
         id="path5654"
         d="m 546.9443,518.69721 c -27.1525,0 -49.25196,22.09554 -49.25196,49.24804 0,27.15249 22.09946,49.25195 49.25196,49.25196 17.25063,0 32.44884,-8.92787 41.24804,-22.39649 l 0,19.57813 8,0 0,-46.4336 0,-46.1543 -8,0 0,19.30079 c -8.7992,-13.46805 -23.99741,-22.39453 -41.24804,-22.39453 z m 0,7.99414 c 22.75303,0 41.12072,18.29521 41.24804,41.01757 l 0,0.47266 c -0.12732,22.72236 -18.49501,41.02148 -41.24804,41.02148 -22.83232,0 -41.25782,-18.4255 -41.25782,-41.25781 0,-22.83232 18.4255,-41.2539 41.25782,-41.2539 z"
         style="color:#000000;font-style:normal;font-variant:normal;font-weight:normal;font-stretch:normal;font-size:medium;line-height:normal;font-family:sans-serif;text-indent:0;text-align:start;text-decoration:none;text-decoration-line:none;text-decoration-style:solid;text-decoration-color:#000000;letter-spacing:normal;word-spacing:normal;text-transform:none;direction:ltr;block-progression:tb;writing-mode:lr-tb;baseline-shift:baseline;text-anchor:start;white-space:normal;clip-rule:nonzero;display:inline;overflow:visible;visibility:visible;opacity:1;isolation:auto;mix-blend-mode:normal;color-interpolation:sRGB;color-interpolation-filters:linearRGB;solid-color:#000000;solid-opacity:1;fill:#797c87;fill-opacity:1;fill-rule:nonzero;stroke:none;stroke-width:8;stroke-linecap:butt;stroke-linejoin:miter;stroke-miterlimit:4;stroke-dasharray:none;stroke-dashoffset:12.19999981;stroke-opacity:1;color-rendering:auto;image-rendering:auto;shape-rendering:auto;text-rendering:auto;enable-background:accumulate" />
      <path
         id="path5656"
         d="m 703.87222,518.6977 c -27.1525,0 -49.25,22.09555 -49.25,49.24805 0,27.15249 22.0975,49.25195 49.25,49.25195 13.21098,0 25.21198,-5.24171 34.0625,-13.74219 l -5.82617,-5.41015 c -7.37314,6.92028 -17.29468,11.1582 -28.23633,11.1582 -21.48165,0 -39.05772,-16.31098 -41.0625,-37.25586 l 90.13477,0 c 0.10685,-1.32108 0.17773,-2.65386 0.17773,-4.00195 0,-27.1525 -22.0975,-49.24805 -49.25,-49.24805 z m 0,7.99414 c 21.48236,0 39.05695,16.31016 41.06055,37.25586 l -82.12305,0 c 2.00379,-20.9457 19.58012,-37.25586 41.0625,-37.25586 z"
         style="display:inline;opacity:1;fill:#797c87;fill-opacity:1;stroke:none;stroke-width:8;stroke-linecap:butt;stroke-linejoin:miter;stroke-miterlimit:4;stroke-dasharray:none;stroke-dashoffset:12.19999981;stroke-opacity:1" />
    </g>
  </g>
</svg>
